<svg xmlns="http://www.w3.org/2000/svg" width="800" height="500" viewBox="0 0 800 500">
  <rect width="800" height="500" fill="#f8f8f8" stroke="#cccccc" stroke-width="2"/>
  <rect x="60" y="40" width="680" height="380" fill="white" stroke="#999999" stroke-width="1"/>
  <!-- Axes -->
  <line x1="80" y1="380" x2="720" y2="380" stroke="#333333" stroke-width="2"/>
  <line x1="80" y1="60" x2="80" y2="380" stroke="#333333" stroke-width="2"/>
  <!-- X axis label -->
  <text x="400" y="430" text-anchor="middle" font-family="sans-serif" font-size="14" fill="#333333">Wallclock time (hours)</text>
  <!-- Y axis label -->
  <text x="20" y="220" text-anchor="middle" font-family="sans-serif" font-size="14" fill="#333333" transform="rotate(-90 20 220)">Loss / bits-per-byte</text>
  <!-- Placeholder diagonal lines suggesting loss curves -->
  <polyline points="80,100 200,160 350,230 500,280 720,320" fill="none" stroke="#2166ac" stroke-width="2.5" stroke-dasharray="8,4"/>
  <polyline points="80,110 200,175 350,245 500,295 720,335" fill="none" stroke="#d73027" stroke-width="2.5" stroke-dasharray="8,4"/>
  <polyline points="80,120 200,190 350,260 500,310 720,350" fill="none" stroke="#1a9850" stroke-width="2.5" stroke-dasharray="8,4"/>
  <!-- Legend -->
  <rect x="550" y="70" width="150" height="90" fill="white" stroke="#aaaaaa" stroke-width="1"/>
  <line x1="560" y1="90" x2="590" y2="90" stroke="#2166ac" stroke-width="2.5" stroke-dasharray="8,4"/>
  <text x="600" y="95" font-family="sans-serif" font-size="12" fill="#333333">NDM (1.27B)</text>
  <line x1="560" y1="115" x2="590" y2="115" stroke="#d73027" stroke-width="2.5" stroke-dasharray="8,4"/>
  <text x="600" y="120" font-family="sans-serif" font-size="12" fill="#333333">Linear baseline</text>
  <line x1="560" y1="140" x2="590" y2="140" stroke="#1a9850" stroke-width="2.5" stroke-dasharray="8,4"/>
  <text x="600" y="145" font-family="sans-serif" font-size="12" fill="#333333">Mamba2</text>
  <!-- Main TODO label -->
  <text x="400" y="220" text-anchor="middle" font-family="sans-serif" font-size="22" font-weight="bold" fill="#888888">TODO: loss curves</text>
  <text x="400" y="252" text-anchor="middle" font-family="sans-serif" font-size="13" fill="#aaaaaa">Stage ~/elman/ artifacts into paper/results/figure_3/</text>
  <!-- Title -->
  <text x="400" y="478" text-anchor="middle" font-family="sans-serif" font-size="12" fill="#666666">Figure 3 placeholder — replace with real loss-vs-wallclock plot</text>
</svg>
